<svg width="26" height="26" viewBox="0 0 26 26" fill="none" xmlns="http://www.w3.org/2000/svg">
<path d="M9.91576 12.5699C10.777 12.5699 11.4747 11.6177 11.4747 10.4444C11.4747 9.27119 10.777 8.31894 9.91576 8.31894C9.05451 8.31894 8.35684 9.27119 8.35684 10.4444C8.35684 11.6177 9.05451 12.5699 9.91576 12.5699ZM6.44476 14.0454C6.41659 13.7129 6.30284 19.6983 13.013 20.059C19.5845 19.7882 19.5845 14.0454 19.5845 14.0454C13 15.5794 6.44476 14.0454 6.44476 14.0454ZM18.7547 15.2458C18.7547 15.2458 18.0299 17.368 13.2828 17.368C9.48568 17.368 7.44576 16.107 7.20851 15.2458C7.20851 15.2458 13.6132 16.3887 18.7547 15.2458ZM12.7877 1.09528C6.07643 1.09528 1.05951 6.53578 1.05951 13.247C1.05951 19.9583 6.28768 24.9048 12.9989 24.9048C19.7102 24.9048 24.9383 19.9583 24.9383 13.247C24.9394 6.53578 19.4989 1.09528 12.7877 1.09528ZM13 23.1335C7.28759 23.1335 2.83726 18.9237 2.83726 13.2113C2.83726 7.49886 7.10776 2.86761 12.8202 2.86761C18.5326 2.86761 23.1638 7.49886 23.1638 13.2113C23.1628 18.9226 18.7124 23.1335 13 23.1335ZM16.367 12.5699C17.2283 12.5699 17.9259 11.6177 17.9259 10.4444C17.9259 9.27119 17.2283 8.31894 16.367 8.31894C15.5058 8.31894 14.8081 9.27119 14.8081 10.4444C14.8081 11.6177 15.5058 12.5699 16.367 12.5699Z" fill="#8696A0"/>
</svg>
