<svg width="18" height="18" viewBox="0 0 18 18" fill="none" xmlns="http://www.w3.org/2000/svg">
<path d="M17.394 5.035L16.824 4.591C16.636 4.444 16.362 4.478 16.215 4.667L9.825 12.865C9.678 13.053 9.419 13.071 9.248 12.904L8.821 12.516C8.65 12.349 8.39 12.366 8.243 12.554L7.792 13.13C7.645 13.318 7.664 13.608 7.835 13.775L9.41 15.285C9.581 15.452 9.84 15.434 9.987 15.246L17.47 5.644C17.616 5.456 17.582 5.182 17.394 5.035ZM12.502 5.035L11.932 4.591C11.744 4.444 11.47 4.478 11.323 4.667L4.933 12.865C4.786 13.053 4.527 13.071 4.356 12.904L1.742 10.348C1.571 10.181 1.295 10.184 1.128 10.355L0.623003 10.871C0.456003 11.042 0.459003 11.318 0.630003 11.485L4.517 15.285C4.688 15.452 4.947 15.434 5.094 15.246L12.577 5.644C12.724 5.456 12.69 5.182 12.502 5.035Z" fill="#8696A0"/>
</svg>
