<svg width="26" height="26" viewBox="0 0 26 26" fill="none" xmlns="http://www.w3.org/2000/svg">
<path d="M13 15.7084C14.4958 15.7084 15.7083 14.4958 15.7083 13C15.7083 11.5042 14.4958 10.2917 13 10.2917C11.5042 10.2917 10.2917 11.5042 10.2917 13C10.2917 14.4958 11.5042 15.7084 13 15.7084Z" stroke="#AEBAC1" stroke-width="2.16667"/>
<mask id="mask0_1_38" style="mask-type:luminance" maskUnits="userSpaceOnUse" x="2" y="2" width="22" height="22">
<path fill-rule="evenodd" clip-rule="evenodd" d="M10.9691 23.8334H15.0316C15.3024 23.8334 15.5372 23.7431 15.7357 23.5625C15.9344 23.3819 16.0517 23.1563 16.0878 22.8854L16.4128 20.3667C16.6295 20.2764 16.8462 20.1681 17.0628 20.0417C17.2795 19.9153 17.4872 19.7798 17.6857 19.6354L19.9878 20.6104C20.2407 20.7007 20.498 20.7052 20.7597 20.624C21.0215 20.5427 21.2247 20.3848 21.3691 20.15L23.3732 16.6834C23.5178 16.4486 23.5628 16.1959 23.5087 15.925C23.4545 15.6542 23.3191 15.4375 23.1024 15.275L21.0712 13.7313C21.1073 13.6048 21.1253 13.483 21.1253 13.3656V12.6344C21.1253 12.5171 21.1163 12.3952 21.0982 12.2688L23.1295 10.725C23.3462 10.5625 23.4816 10.3459 23.5357 10.075C23.5899 9.80419 23.5448 9.55141 23.4003 9.31669L21.3962 5.82294C21.2517 5.58821 21.0532 5.43475 20.8003 5.36252C20.5476 5.29029 20.2948 5.29933 20.042 5.3896L17.6857 6.3646C17.4872 6.22016 17.284 6.08475 17.0764 5.95835C16.8688 5.83196 16.6476 5.72363 16.4128 5.63335L16.0878 3.1146C16.0517 2.84377 15.9344 2.61808 15.7357 2.43752C15.5372 2.25696 15.3024 2.16669 15.0316 2.16669H10.9691C10.6983 2.16669 10.4636 2.25696 10.265 2.43752C10.0663 2.61808 9.94898 2.84377 9.91287 3.1146L9.58787 5.63335C9.3712 5.72363 9.15454 5.83196 8.93787 5.95835C8.7212 6.08475 8.51356 6.22016 8.31495 6.3646L5.9587 5.3896C5.70592 5.29933 5.44862 5.28579 5.18683 5.34898C4.92502 5.41217 4.73092 5.57016 4.60453 5.82294L2.60037 9.31669C2.45592 9.55141 2.41078 9.80419 2.46495 10.075C2.51912 10.3459 2.65453 10.5625 2.8712 10.725L4.90245 12.2688C4.88439 12.3952 4.87537 12.5171 4.87537 12.6344V13.3656C4.87537 13.483 4.88439 13.6048 4.90245 13.7313L2.8712 15.275C2.65453 15.4375 2.51912 15.6542 2.46495 15.925C2.41078 16.1959 2.45592 16.4486 2.60037 16.6834L4.60453 20.1771C4.74898 20.4119 4.94758 20.5653 5.20037 20.6375C5.45314 20.7098 5.70592 20.7007 5.9587 20.6104L8.31495 19.6354C8.51356 19.7798 8.71668 19.9153 8.92433 20.0417C9.13196 20.1681 9.35314 20.2764 9.58787 20.3667L9.91287 22.8854C9.94898 23.1563 10.0663 23.3819 10.265 23.5625C10.4636 23.7431 10.6983 23.8334 10.9691 23.8334Z" fill="white"/>
</mask>
<g mask="url(#mask0_1_38)">
<path d="M16.0878 22.8854L18.2355 23.1717L18.2367 23.1626L16.0878 22.8854ZM16.4128 20.3667L15.5795 18.3666L14.4241 18.848L14.264 20.0894L16.4128 20.3667ZM17.6857 19.6354L18.5307 17.6404L17.4025 17.1624L16.4114 17.8831L17.6857 19.6354ZM19.9878 20.6104L19.1429 22.6055L19.2003 22.6299L19.2592 22.6509L19.9878 20.6104ZM21.3691 20.15L23.2144 21.2855L23.23 21.2602L23.2449 21.2344L21.3691 20.15ZM23.3732 16.6833L21.528 15.5478L21.5124 15.5731L21.4976 15.5989L23.3732 16.6833ZM23.1024 15.275L21.7914 17.0001L21.8024 17.0083L23.1024 15.275ZM21.0712 13.7313L18.9879 13.1361L18.581 14.5601L19.7602 15.4562L21.0712 13.7313ZM21.0982 12.2688L19.7873 10.5437L18.7733 11.3143L18.9533 12.5751L21.0982 12.2688ZM23.1295 10.725L21.8295 8.99163L21.8185 8.99999L23.1295 10.725ZM23.4003 9.31667L21.521 10.3948L21.5376 10.4238L21.5551 10.4522L23.4003 9.31667ZM21.3962 5.82292L23.2756 4.74482L23.259 4.71583L23.2415 4.68738L21.3962 5.82292ZM20.042 5.38958L19.3133 3.34915L19.263 3.36712L19.2136 3.38755L20.042 5.38958ZM17.6857 6.36458L16.4114 8.11684L17.3928 8.83063L18.5142 8.36662L17.6857 6.36458ZM16.4128 5.63333L14.264 5.9106L14.4293 7.19184L15.6351 7.65558L16.4128 5.63333ZM16.0878 3.11458L18.2367 2.8373L18.2355 2.82823L16.0878 3.11458ZM9.91287 3.11458L7.76518 2.82823L7.76401 2.83732L9.91287 3.11458ZM9.58787 5.63333L10.4212 7.63333L11.5765 7.15194L11.7367 5.9106L9.58787 5.63333ZM8.31495 6.36458L7.48652 8.36662L8.60787 8.83063L9.58932 8.11684L8.31495 6.36458ZM5.9587 5.38958L6.78713 3.38755L6.73775 3.36712L6.68743 3.34915L5.9587 5.38958ZM4.60453 5.82292L6.48393 6.90102L6.51475 6.84728L6.54245 6.79188L4.60453 5.82292ZM2.60037 9.31667L4.44562 10.4522L4.46314 10.4238L4.47977 10.3948L2.60037 9.31667ZM2.8712 10.725L4.18224 8.99994L4.1712 8.99167L2.8712 10.725ZM4.90245 12.2688L7.04734 12.5751L7.22746 11.3143L6.21346 10.5437L4.90245 12.2688ZM4.90245 13.7313L6.21346 15.4562L7.22746 14.6857L7.04734 13.4249L4.90245 13.7313ZM2.8712 15.275L4.17122 17.0083L4.18221 17L2.8712 15.275ZM2.60037 16.6833L4.47977 15.6052L4.46314 15.5763L4.44562 15.5478L2.60037 16.6833ZM4.60453 20.1771L2.72513 21.2552L2.74176 21.2841L2.75927 21.3126L4.60453 20.1771ZM5.9587 20.6104L6.68743 22.6509L6.73775 22.6329L6.78713 22.6124L5.9587 20.6104ZM8.31495 19.6354L9.58932 17.8831L8.60787 17.1694L7.48652 17.6334L8.31495 19.6354ZM9.58787 20.3667L11.7367 20.0894L11.5714 18.8082L10.3657 18.3444L9.58787 20.3667ZM9.91287 22.8854L7.76399 23.1626L7.7652 23.1717L9.91287 22.8854ZM15.0316 21.6667H10.9691V26H15.0316V21.6667ZM14.2783 21.9593C14.3641 21.8813 14.4833 21.8009 14.633 21.7434C14.7823 21.686 14.9217 21.6667 15.0316 21.6667V26C15.8361 26 16.5918 25.7124 17.1933 25.1657L14.2783 21.9593ZM13.9402 22.5991C13.9529 22.504 13.985 22.3843 14.0505 22.2582C14.1163 22.1316 14.1988 22.0316 14.2783 21.9593L17.1933 25.1657C17.7774 24.6347 18.1332 23.9393 18.2355 23.1717L13.9402 22.5991ZM14.264 20.0894L13.939 22.6082L18.2367 23.1626L18.5617 20.6439L14.264 20.0894ZM15.9711 18.1701C15.832 18.2514 15.7015 18.3158 15.5795 18.3666L17.2462 22.3667C17.5576 22.2369 17.8604 22.0848 18.1546 21.9132L15.9711 18.1701ZM16.4114 17.8831C16.2729 17.9839 16.1263 18.0796 15.9711 18.1701L18.1546 21.9132C18.4328 21.751 18.7015 21.5758 18.9602 21.3877L16.4114 17.8831ZM20.8328 18.6154L18.5307 17.6404L16.8408 21.6305L19.1429 22.6055L20.8328 18.6154ZM20.1175 18.5547C20.1924 18.5314 20.292 18.5131 20.4084 18.5151C20.5254 18.5172 20.6308 18.5393 20.7166 18.57L19.2592 22.6509C19.9638 22.9025 20.7024 22.9103 21.4019 22.6932L20.1175 18.5547ZM19.5238 19.0145C19.5778 18.9267 19.661 18.8255 19.7782 18.7343C19.8956 18.643 20.0158 18.5862 20.1175 18.5547L21.4019 22.6932C22.1675 22.4557 22.7968 21.9641 23.2144 21.2855L19.5238 19.0145ZM21.4976 15.5989L19.4934 19.0656L23.2449 21.2344L25.249 17.7677L21.4976 15.5989ZM21.3841 16.3499C21.3621 16.2398 21.354 16.0968 21.3825 15.9368C21.4111 15.7768 21.4684 15.6446 21.528 15.5478L25.2186 17.8189C25.6505 17.1169 25.7946 16.3064 25.6333 15.5001L21.3841 16.3499ZM21.8024 17.0083C21.7101 16.9391 21.6113 16.8391 21.5292 16.7077C21.4474 16.5768 21.4042 16.4501 21.3841 16.3499L25.6333 15.5001C25.4769 14.718 25.0548 14.0309 24.4024 13.5417L21.8024 17.0083ZM19.7602 15.4562L21.7914 17.0001L24.4135 13.55L22.3822 12.0063L19.7602 15.4562ZM18.9587 13.3656C18.9587 13.2592 18.9752 13.1804 18.9879 13.1361L23.1545 14.3264C23.2393 14.0294 23.292 13.7068 23.292 13.3656H18.9587ZM18.9587 12.6344V13.3656H23.292V12.6344H18.9587ZM18.9533 12.5751C18.9582 12.6088 18.9587 12.628 18.9587 12.6344H23.292C23.292 12.406 23.2744 12.1814 23.2431 11.9624L18.9533 12.5751ZM21.8185 8.99999L19.7873 10.5437L22.4093 13.9937L24.4405 12.45L21.8185 8.99999ZM21.4112 9.65008C21.4313 9.54987 21.4745 9.42314 21.5563 9.29229C21.6384 9.16084 21.7372 9.06089 21.8295 8.99163L24.4295 12.4583C25.0819 11.9691 25.5039 11.2821 25.6604 10.4999L21.4112 9.65008ZM21.5551 10.4522C21.4955 10.3554 21.4382 10.2232 21.4096 10.0632C21.3811 9.9032 21.3892 9.76014 21.4112 9.65008L25.6604 10.4999C25.8217 9.6936 25.6776 8.88315 25.2457 8.18113L21.5551 10.4522ZM19.5168 6.90102L21.521 10.3948L25.2798 8.23857L23.2756 4.74482L19.5168 6.90102ZM20.2051 7.4458C20.0799 7.41001 19.9426 7.34552 19.8141 7.24622C19.687 7.14803 19.6024 7.04207 19.5509 6.95846L23.2415 4.68738C22.8284 4.01618 22.1958 3.50783 21.3956 3.2792L20.2051 7.4458ZM20.7708 7.43002C20.7006 7.4551 20.6076 7.4765 20.4985 7.4804C20.389 7.48431 20.2886 7.46964 20.2051 7.4458L21.3956 3.2792C20.6982 3.07993 19.9825 3.11014 19.3133 3.34915L20.7708 7.43002ZM18.5142 8.36662L20.8704 7.39162L19.2136 3.38755L16.8573 4.36255L18.5142 8.36662ZM15.9498 7.8091C16.1063 7.90437 16.2602 8.00688 16.4114 8.11684L18.9602 4.61232C18.7141 4.43339 18.4617 4.26507 18.2029 4.10757L15.9498 7.8091ZM15.6351 7.65558C15.7529 7.70086 15.8569 7.7525 15.9498 7.8091L18.2029 4.10757C17.8806 3.9114 17.5423 3.74635 17.1907 3.61109L15.6351 7.65558ZM13.939 3.39185L14.264 5.9106L18.5617 5.35606L18.2367 2.8373L13.939 3.39185ZM14.2783 4.0407C14.1988 3.9684 14.1163 3.86832 14.0505 3.74178C13.985 3.61574 13.9529 3.49601 13.9402 3.40094L18.2355 2.82823C18.1332 2.06073 17.7774 1.36535 17.1933 0.834297L14.2783 4.0407ZM15.0316 4.33333C14.9217 4.33333 14.7823 4.31407 14.633 4.25662C14.4833 4.19905 14.3641 4.11874 14.2783 4.0407L17.1933 0.834297C16.5918 0.287572 15.8361 0 15.0316 0V4.33333ZM10.9691 4.33333H15.0316V0H10.9691V4.33333ZM11.7224 4.0407C11.6365 4.11874 11.5175 4.19905 11.3677 4.25662C11.2183 4.31407 11.079 4.33333 10.9691 4.33333V0C10.1647 0 9.40889 0.287572 8.80749 0.834297L11.7224 4.0407ZM12.0605 3.40094C12.0479 3.49601 12.0158 3.61576 11.9502 3.74179C11.8845 3.86832 11.8019 3.9684 11.7224 4.0407L8.80749 0.834297C8.22334 1.36535 7.86751 2.06072 7.76518 2.82823L12.0605 3.40094ZM11.7367 5.9106L12.0617 3.39185L7.76401 2.83732L7.43901 5.35606L11.7367 5.9106ZM10.0296 7.82986C10.1687 7.7487 10.2992 7.68415 10.4212 7.63333L8.75453 3.63334C8.44315 3.76308 8.14036 3.91519 7.84615 4.08681L10.0296 7.82986ZM9.58932 8.11684C9.72784 8.01609 9.87443 7.92036 10.0296 7.82986L7.84615 4.08681C7.56797 4.24908 7.29927 4.42418 7.04057 4.61232L9.58932 8.11684ZM5.13026 7.39162L7.48652 8.36662L9.14338 4.36255L6.78713 3.38755L5.13026 7.39162ZM5.69521 7.45513C5.63183 7.47044 5.55204 7.48011 5.46226 7.47539C5.37243 7.47067 5.29315 7.45259 5.22997 7.43002L6.68743 3.34915C6.03603 3.1165 5.34874 3.08098 4.67844 3.24279L5.69521 7.45513ZM6.54245 6.79188C6.48599 6.90481 6.383 7.05657 6.21266 7.19523C6.03987 7.33586 5.85456 7.41667 5.69521 7.45513L4.67844 3.24279C3.76156 3.4641 3.06247 4.06222 2.6666 4.85395L6.54245 6.79188ZM4.47977 10.3948L6.48393 6.90102L2.72513 4.74482L0.720967 8.23857L4.47977 10.3948ZM4.58954 9.65008C4.61155 9.76014 4.61967 9.9032 4.5911 10.0632C4.56252 10.2232 4.50522 10.3554 4.44562 10.4522L0.755105 8.18113C0.323088 8.88315 0.179093 9.6936 0.340356 10.4999L4.58954 9.65008ZM4.1712 8.99167C4.26354 9.06092 4.36231 9.16084 4.44446 9.29229C4.52624 9.42314 4.5695 9.54985 4.58954 9.65008L0.340356 10.4999C0.496785 11.2821 0.918845 11.9691 1.5712 12.4583L4.1712 8.99167ZM6.21346 10.5437L4.18224 8.99994L1.56018 12.45L3.59143 13.9937L6.21346 10.5437ZM7.04203 12.6344C7.04203 12.628 7.04253 12.6088 7.04734 12.5751L2.75756 11.9624C2.72625 12.1814 2.7087 12.406 2.7087 12.6344H7.04203ZM7.04203 13.3656V12.6344H2.7087V13.3656H7.04203ZM7.04734 13.4249C7.04253 13.3912 7.04203 13.372 7.04203 13.3656H2.7087C2.7087 13.594 2.72625 13.8186 2.75756 14.0376L7.04734 13.4249ZM4.18221 17L6.21346 15.4562L3.59143 12.0063L1.56018 13.55L4.18221 17ZM4.58954 16.3499C4.5695 16.4501 4.52624 16.5768 4.44446 16.7077C4.36231 16.8391 4.26357 16.9391 4.17122 17.0083L1.5712 13.5417C0.918845 14.0309 0.496785 14.718 0.340356 15.5001L4.58954 16.3499ZM4.44562 15.5478C4.50522 15.6446 4.56252 15.7768 4.5911 15.9368C4.61967 16.0968 4.61155 16.2398 4.58954 16.3499L0.340356 15.5001C0.179093 16.3064 0.323087 17.1169 0.755106 17.8189L4.44562 15.5478ZM6.48393 19.099L4.47977 15.6052L0.720967 17.7615L2.72513 21.2552L6.48393 19.099ZM5.7956 18.5543C5.92088 18.59 6.05812 18.6545 6.18662 18.7538C6.3137 18.8519 6.39834 18.9579 6.4498 19.0415L2.75927 21.3126C3.17232 21.9839 3.80493 22.4922 4.60513 22.7208L5.7956 18.5543ZM5.22996 18.57C5.30016 18.5449 5.39309 18.5235 5.50219 18.5196C5.61175 18.5157 5.71216 18.5303 5.7956 18.5543L4.60513 22.7208C5.30258 22.9201 6.01822 22.8899 6.68743 22.6509L5.22996 18.57ZM7.48652 17.6334L5.13026 18.6084L6.78713 22.6124L9.14338 21.6374L7.48652 17.6334ZM10.0509 18.1909C9.89435 18.0957 9.74052 17.9931 9.58932 17.8831L7.04057 21.3877C7.2866 21.5666 7.53901 21.7349 7.79777 21.8924L10.0509 18.1909ZM10.3657 18.3444C10.2479 18.2991 10.1439 18.2476 10.0509 18.1909L7.79777 21.8924C8.12005 22.0886 8.45837 22.2536 8.81007 22.3889L10.3657 18.3444ZM12.0617 22.6082L11.7367 20.0894L7.43901 20.6439L7.76399 23.1626L12.0617 22.6082ZM11.7224 21.9593C11.8019 22.0316 11.8845 22.1316 11.9502 22.2582C12.0158 22.3843 12.0479 22.504 12.0605 22.5991L7.7652 23.1717C7.86753 23.9393 8.22333 24.6347 8.80749 25.1657L11.7224 21.9593ZM10.9691 21.6667C11.079 21.6667 11.2183 21.686 11.3677 21.7434C11.5175 21.8009 11.6365 21.8813 11.7224 21.9593L8.80749 25.1657C9.40889 25.7124 10.1647 26 10.9691 26V21.6667Z" fill="#AEBAC1"/>
</g>
</svg>
